<svg id="ico-password" xmlns="http://www.w3.org/2000/svg" width="24" height="24" viewBox="0 0 24 24">
  <rect id="사각형_13" data-name="사각형 13" width="24" height="24" fill="none"/>
  <g id="그룹_14" data-name="그룹 14" transform="translate(-824 -992.049)">
    <rect id="사각형_15" data-name="사각형 15" width="16" height="11" rx="2" transform="translate(828 1002.048)" fill="none" stroke="#c3c4c6" stroke-linecap="round" stroke-linejoin="round" stroke-width="1"/>
    <path id="패스_8" data-name="패스 8" d="M841,1002.07v-3.256a3.764,3.764,0,0,1,3.764-3.764h0a3.764,3.764,0,0,1,3.764,3.764v3.256" transform="translate(-8.923)" fill="none" stroke="#c3c4c6" stroke-linecap="round" stroke-linejoin="round" stroke-width="1"/>
    <path id="패스_9" data-name="패스 9" d="M850.113,1027.6v-1.582a.471.471,0,0,0-.47-.47h0a.471.471,0,0,0-.47.47v1.582a1.741,1.741,0,0,0-1.293,1.674,1.763,1.763,0,0,0,3.526,0A1.741,1.741,0,0,0,850.113,1027.6Z" transform="translate(-13.644 -20.934)" fill="#c3c4c6"/>
  </g>
</svg>
