<svg id="ico-pay" xmlns="http://www.w3.org/2000/svg" width="24" height="24" viewBox="0 0 24 24">
  <rect id="사각형_1857" data-name="사각형 1857" width="24" height="24" fill="none"/>
  <g id="그룹_1565" data-name="그룹 1565" transform="translate(-251 -759)">
    <rect id="사각형_2553" data-name="사각형 2553" width="18" height="18" transform="translate(254 762)" fill="none"/>
    <path id="패스_1079" data-name="패스 1079" d="M614.5,480.941h-1v-2.118a2.094,2.094,0,0,0-1.487-2.038l-.005-.034h-.1a1.9,1.9,0,0,0-.409-.045h-10l.114.045H601.5a1.891,1.891,0,0,1-1.833-1.941h1a.86.86,0,0,0,.833.882h11v-.045A2.58,2.58,0,0,0,610,473H599.5a2.58,2.58,0,0,0-2.5,2.647v12.706A2.58,2.58,0,0,0,599.5,491h12a2.58,2.58,0,0,0,2.5-2.647v-2.118h.5a.515.515,0,0,0,.5-.529v-4.235A.515.515,0,0,0,614.5,480.941Zm-.5,4.235h-2.833a1.591,1.591,0,0,1,0-3.176H614Z" transform="translate(-343 289)" fill="#9fa3ac"/>
  </g>
</svg>
