<svg id="ico-cs" xmlns="http://www.w3.org/2000/svg" width="24" height="24" viewBox="0 0 24 24">
  <rect id="사각형_1859" data-name="사각형 1859" width="24" height="24" fill="none"/>
  <path id="패스_724" data-name="패스 724" d="M53.522,38.7a8,8,0,0,0-13.705,5.844,7.623,7.623,0,0,0,.547,2.677A7.923,7.923,0,0,0,41.494,49.2l-.66,1.565a1.186,1.186,0,0,0,1.3,1.64l3.054-.528A8.009,8.009,0,0,0,53.522,38.7Zm-6.3,8.8H45.133a.6.6,0,0,1,0-1.207h2.093a.607.607,0,0,1,.6.6A.6.6,0,0,1,47.225,47.506Zm3.261-2.451H45.133a.607.607,0,0,1-.6-.6.6.6,0,0,1,.6-.6h5.354a.6.6,0,1,1,0,1.206Zm0-2.47H45.133a.6.6,0,0,1,0-1.207h5.354a.607.607,0,0,1,.6.6A.62.62,0,0,1,50.487,42.585Z" transform="translate(-35.813 -32.305)" fill="#9fa3ac"/>
</svg>
