<svg id="ico-mypage" xmlns="http://www.w3.org/2000/svg" width="24" height="24" viewBox="0 0 24 24">
  <rect id="사각형_1857" data-name="사각형 1857" width="24" height="24" fill="none"/>
  <g id="그룹_782" data-name="그룹 782" transform="translate(4 3)">
    <path id="패스_709" data-name="패스 709" d="M292.96,73.671A4.336,4.336,0,1,0,289.9,72.4a4.194,4.194,0,0,0,3.065,1.27Zm0,0" transform="translate(-284.96 -65)" fill="#9fa3ac"/>
    <path id="패스_710" data-name="패스 710" d="M234.961,268a10.083,10.083,0,0,0-.155-1.137,8.508,8.508,0,0,0-.3-1.144,5.49,5.49,0,0,0-.5-1.067,4.063,4.063,0,0,0-.755-.924,3.368,3.368,0,0,0-1.085-.64,3.968,3.968,0,0,0-1.385-.235,1.457,1.457,0,0,0-.751.3c-.225.138-.488.3-.782.473a4.634,4.634,0,0,1-1.012.418,4.173,4.173,0,0,1-2.475,0,4.618,4.618,0,0,1-1.011-.418c-.291-.175-.554-.334-.783-.474a1.458,1.458,0,0,0-.75-.3,3.965,3.965,0,0,0-1.385.235,3.366,3.366,0,0,0-1.085.64,4.067,4.067,0,0,0-.755.924,5.49,5.49,0,0,0-.5,1.067,8.488,8.488,0,0,0-.3,1.143,10.061,10.061,0,0,0-.155,1.138c-.025.344-.038.7-.038,1.063a2.9,2.9,0,0,0,.946,2.261,3.537,3.537,0,0,0,2.437.834h9.234a3.537,3.537,0,0,0,2.437-.834,2.894,2.894,0,0,0,.946-2.261c0-.363-.013-.72-.039-1.063Zm0,0" transform="translate(-219 -254.157)" fill="#9fa3ac"/>
  </g>
</svg>
