<svg id="ico-receipt" xmlns="http://www.w3.org/2000/svg" width="24" height="24" viewBox="0 0 24 24">
  <rect id="사각형_1860" data-name="사각형 1860" width="24" height="24" fill="none"/>
  <g id="그룹_1564" data-name="그룹 1564" transform="translate(-176 -759)">
    <rect id="사각형_2552" data-name="사각형 2552" width="18" height="18" transform="translate(179 762)" fill="none"/>
    <path id="패스_1078" data-name="패스 1078" d="M165.486,1033H150.628a2.615,2.615,0,0,0-2.571,2.636L148,1050.469a.537.537,0,0,0,.15.376.5.5,0,0,0,.364.156h2.839a.521.521,0,0,0,.514-.529.777.777,0,1,1,1.553,0,.522.522,0,0,0,.514.529h3.612a.522.522,0,0,0,.514-.529.777.777,0,1,1,1.553,0,.522.522,0,0,0,.514.529h3.356a.522.522,0,0,0,.514-.529v-14.708a1.846,1.846,0,0,1,.32-1.345,1.561,1.561,0,0,1,1.164-.359h0a.53.53,0,0,0,0-1.059Zm-5.6,12.706h-7.714v-1.059h7.714Zm0-3.176h-7.714v-1.059h7.714Zm0-3.177h-7.714v-1.059h7.714Z" transform="translate(31 -271)" fill="#9fa3ac"/>
  </g>
</svg>
