<svg xmlns="http://www.w3.org/2000/svg" viewBox="0 0 653.83 108.14"><defs><style>.cls-1{fill:#00a0e9;}.cls-2{fill:#191919;}</style></defs><g id="Layer_2" data-name="Layer 2"><g id="레이어_1" data-name="레이어 1"><path class="cls-1" d="M69.63,55.22a5,5,0,1,0-4.95,5A5,5,0,0,0,69.63,55.22Z"/><path class="cls-1" d="M40.74,0,0,23.52v47l38,37.58V60.84L22.78,45.63a11.41,11.41,0,0,1-6,1.69,11.61,11.61,0,1,1,9.87-5.58L38,53.05V30a2.76,2.76,0,0,1,5.51,0V72.52L54.8,61.2a11.55,11.55,0,1,1,3.89,3.9L43.49,80.3V92.49l38-21.93v-47Z"/><path class="cls-1" d="M11.84,35.76a5,5,0,1,0,5-4.95A5,5,0,0,0,11.84,35.76Z"/><path class="cls-2" d="M112.12,26.25V81.59h-8.46V26.25Z"/><path class="cls-2" d="M123.41,46.66h8.13V49.9A12,12,0,0,1,141,45.75c6.47,0,9.21,3.23,10.29,4.72,1.32,1.92,2.16,4.32,2.16,9.72v21.4h-8.14V62.17c0-8.87-3.32-9.12-6.39-9.12-3.65,0-7.38.49-7.38,11.78V81.59h-8.13Z"/><path class="cls-2" d="M178.57,55.87a5.83,5.83,0,0,0-5-3,3.45,3.45,0,0,0-2.49.92,2.62,2.62,0,0,0-.74,1.82,2.23,2.23,0,0,0,1.16,2c.5.33,1,.5,2.74,1.41l4.15,2.08a16.65,16.65,0,0,1,4.89,3.23,8.64,8.64,0,0,1,2.58,6.48,11.58,11.58,0,0,1-3.08,8c-2.73,3-6.13,3.9-9.79,3.9a12,12,0,0,1-7.55-2.24A13.6,13.6,0,0,1,161,74l6.64-3.15a9.15,9.15,0,0,0,1.91,3.32,5,5,0,0,0,3.57,1.32,4.89,4.89,0,0,0,3.31-1.15,4.13,4.13,0,0,0,1.17-2.75A3.8,3.8,0,0,0,176.5,69,10.85,10.85,0,0,0,173,66.82l-3-1.41a17.38,17.38,0,0,1-4.81-3,7.62,7.62,0,0,1-2.49-5.89,10.9,10.9,0,0,1,2.91-7.47,11.28,11.28,0,0,1,8.55-3.31,10.85,10.85,0,0,1,6.46,1.82,11.9,11.9,0,0,1,4,4.31Z"/><path class="cls-2" d="M200.88,46.66v20c0,2.08.09,4.49,1.5,6.32A7.07,7.07,0,0,0,213,73c1.41-1.83,1.49-4.24,1.49-6.32v-20h8.13V66.91c0,4.48-.5,8.21-3.73,11.44a15.91,15.91,0,0,1-11.37,4.32,15.33,15.33,0,0,1-11-4.32c-3.24-3.23-3.74-7-3.74-11.44V46.66Z"/><path class="cls-2" d="M232.49,46.66h8.13v3.15a13.9,13.9,0,0,1,3.4-2.9,9.44,9.44,0,0,1,5-1.16,12,12,0,0,1,6.39,1.66l-3.32,7.38a7.37,7.37,0,0,0-4.15-1.25,6.37,6.37,0,0,0-5.06,1.91c-2.24,2.41-2.24,5.73-2.24,8V81.59h-8.13Z"/><path class="cls-2" d="M274.56,34.21V81.59h-8.47V34.21H253.4v-8h33.85v8Z"/><path class="cls-2" d="M320.77,73.63A18.52,18.52,0,0,1,314.88,80a19.27,19.27,0,0,1-10.29,2.65c-4.65,0-8.47-1.16-11.79-4.48a18.74,18.74,0,0,1-5.14-13.36,20.51,20.51,0,0,1,5.56-14.36,15.92,15.92,0,0,1,11.7-4.72,15,15,0,0,1,11.2,4.56C320.6,55,321,61.43,321,65.08v1H296a11.48,11.48,0,0,0,3,7,8.28,8.28,0,0,0,6.22,2.24,8.54,8.54,0,0,0,5.55-1.74A12.54,12.54,0,0,0,314,69.81Zm-8-14.19a8.46,8.46,0,0,0-2.49-4.73A8.49,8.49,0,0,0,299,55a9.18,9.18,0,0,0-2.49,4.49Z"/><path class="cls-2" d="M356.1,57.36a13.7,13.7,0,0,0-9.87-4.31,10.45,10.45,0,0,0-7.72,3.07,11.15,11.15,0,0,0-3,8,11.58,11.58,0,0,0,3.16,8.39,10.57,10.57,0,0,0,7.38,2.82,13.62,13.62,0,0,0,10-4.48v9a19.05,19.05,0,0,1-10.62,2.74c-5.81,0-10-1.66-13.27-5.14a18.16,18.16,0,0,1-5-13.11,18.67,18.67,0,0,1,5.31-13.53c2.74-2.74,7.13-5.14,14-5.14a18.75,18.75,0,0,1,9.54,2.48Z"/><path class="cls-2" d="M363.48,21.1h8.13V49.64A12.58,12.58,0,0,1,381,45.75c6.39,0,9.29,3.31,10.29,4.72,2.16,3.16,2.24,7.23,2.24,9.72v21.4h-8.13V60.93c0-2.08,0-4.31-1.58-6.06a6.14,6.14,0,0,0-4.56-1.82,7.21,7.21,0,0,0-6,2.9c-1.16,1.66-1.66,4.31-1.66,8.8V81.59h-8.13Z"/><path class="cls-2" d="M447.69,38.53a8.56,8.56,0,0,0-8.46-5.48c-5.15,0-7.8,3.07-7.8,6.64,0,1.66.57,4.56,6,6.72L443,48.65c10.2,4.15,13,10,13,16.26,0,10.54-7.47,17.76-17.83,17.76-6.39,0-10.21-2.4-13-5.56a17.94,17.94,0,0,1-4.64-10.79l8.38-1.82a12,12,0,0,0,2.32,7,8.74,8.74,0,0,0,7.22,3.32,8.89,8.89,0,0,0,9.13-9.3c0-5.64-4.32-8-8-9.45l-5.31-2.24C429.68,52,423,48.15,423,39.85c0-7.47,5.81-14.6,16.18-14.6,6,0,9.37,2.24,11.12,3.73a19,19,0,0,1,4.23,5.56Z"/><path class="cls-2" d="M496,73.63A18.52,18.52,0,0,1,490.08,80a19.27,19.27,0,0,1-10.29,2.65c-4.65,0-8.47-1.16-11.79-4.48a18.74,18.74,0,0,1-5.14-13.36,20.51,20.51,0,0,1,5.56-14.36,15.92,15.92,0,0,1,11.7-4.72,15,15,0,0,1,11.2,4.56c4.48,4.64,4.89,11.12,4.89,14.77v1h-25a11.48,11.48,0,0,0,3,7,8.28,8.28,0,0,0,6.22,2.24,8.54,8.54,0,0,0,5.55-1.74,12.54,12.54,0,0,0,3.24-3.82Zm-8.05-14.19a8.46,8.46,0,0,0-2.49-4.73,8.49,8.49,0,0,0-11.2.24,9.18,9.18,0,0,0-2.49,4.49Z"/><path class="cls-2" d="M504.25,46.66h8.14v3.15a13.72,13.72,0,0,1,3.4-2.9,9.4,9.4,0,0,1,5-1.16,12.07,12.07,0,0,1,6.39,1.66l-3.32,7.38a7.4,7.4,0,0,0-4.15-1.25,6.39,6.39,0,0,0-5.07,1.91c-2.23,2.41-2.23,5.73-2.23,8V81.59h-8.14Z"/><path class="cls-2" d="M537.6,46.66l9,19.92,9-19.92h9.12L546.57,84.08,528.48,46.66Z"/><path class="cls-2" d="M573.94,27a5.23,5.23,0,1,1-5.23,5.23A5.11,5.11,0,0,1,573.94,27ZM578,46.66V81.59h-8.14V46.66Z"/><path class="cls-2" d="M614.93,57.36a13.73,13.73,0,0,0-9.88-4.31,10.42,10.42,0,0,0-7.71,3.07,11.11,11.11,0,0,0-3,8,11.62,11.62,0,0,0,3.15,8.39,10.58,10.58,0,0,0,7.38,2.82,13.66,13.66,0,0,0,10-4.48v9a19.09,19.09,0,0,1-10.63,2.74c-5.81,0-9.95-1.66-13.27-5.14a18.16,18.16,0,0,1-5-13.11,18.67,18.67,0,0,1,5.31-13.53c2.74-2.74,7.13-5.14,14-5.14a18.8,18.8,0,0,1,9.55,2.48Z"/><path class="cls-2" d="M653.58,73.63A18.33,18.33,0,0,1,647.69,80a19.25,19.25,0,0,1-10.29,2.65c-4.64,0-8.46-1.16-11.78-4.48a18.74,18.74,0,0,1-5.14-13.36A20.47,20.47,0,0,1,626,50.47a15.92,15.92,0,0,1,11.7-4.72,15.05,15.05,0,0,1,11.2,4.56c4.48,4.64,4.89,11.12,4.89,14.77v1H628.77a11.6,11.6,0,0,0,3,7A8.3,8.3,0,0,0,638,75.37a8.57,8.57,0,0,0,5.56-1.74,12.68,12.68,0,0,0,3.24-3.82Zm-8-14.19a8.52,8.52,0,0,0-2.49-4.73,8.49,8.49,0,0,0-11.2.24,9.1,9.1,0,0,0-2.49,4.49Z"/></g></g></svg>