<?xml version="1.0" encoding="utf-8"?>
<!-- Generator: Adobe Illustrator 24.2.2, SVG Export Plug-In . SVG Version: 6.00 Build 0)  -->
<svg version="1.1" id="Layer_1" xmlns="http://www.w3.org/2000/svg" xmlns:xlink="http://www.w3.org/1999/xlink" x="0px" y="0px"
	 viewBox="0 0 100 100" style="enable-background:new 0 0 100 100;" xml:space="preserve">
<style type="text/css">
	.st0{fill:#00A0E9;}
	.st1{fill:#FFFFFF;}
</style>
<path class="st0" d="M14,0h72c7.7,0,14,6.3,14,14v72c0,7.7-6.3,14-14,14H14c-7.7,0-14-6.3-14-14V14C0,6.3,6.3,0,14,0z"/>
<g>
	<path class="st1" d="M67.1,50.7c0-1.6-1.3-2.9-2.9-2.9c-1.6,0-2.9,1.3-2.9,2.9c0,1.6,1.3,2.9,2.9,2.9
		C65.7,53.6,67.1,52.3,67.1,50.7z"/>
	<path class="st1" d="M50,18.1L26,32v27.8l22.4,22.2V54l-9-9c-1,0.6-2.2,1-3.5,1C32.1,46,29,43,29,39.2c0-3.8,3.1-6.8,6.8-6.8
		c3.8,0,6.8,3.1,6.8,6.8c0,1.3-0.4,2.5-1,3.5l6.7,6.7V35.8c0-0.9,0.7-1.6,1.6-1.6s1.6,0.7,1.6,1.6v25.1l6.7-6.7c-0.6-1-1-2.2-1-3.5
		c0-3.8,3.1-6.8,6.8-6.8c3.8,0,6.8,3.1,6.8,6.8s-3.1,6.8-6.8,6.8c-1.3,0-2.5-0.4-3.5-1l-9,9v7.2L74,59.7V32L50,18.1z"/>
	<path class="st1" d="M32.9,39.2c0,1.6,1.3,2.9,2.9,2.9s2.9-1.3,2.9-2.9c0-1.6-1.3-2.9-2.9-2.9S32.9,37.6,32.9,39.2z"/>
</g>
</svg>
